<?xml version="1.0" encoding="UTF-8" standalone="no"?>
<!-- Created with Inkscape (http://www.inkscape.org/) -->

<svg
   width="290mm"
   height="290mm"
   viewBox="0 0 290 290"
   version="1.1"
   id="svg1"
   inkscape:version="1.3.2 (091e20e, 2023-11-25, custom)"
   sodipodi:docname="Fix 2.svg"
   xmlns:inkscape="http://www.inkscape.org/namespaces/inkscape"
   xmlns:sodipodi="http://sodipodi.sourceforge.net/DTD/sodipodi-0.dtd"
   xmlns="http://www.w3.org/2000/svg"
   xmlns:svg="http://www.w3.org/2000/svg">
  <sodipodi:namedview
     id="namedview1"
     pagecolor="#505050"
     bordercolor="#eeeeee"
     borderopacity="1"
     inkscape:showpageshadow="0"
     inkscape:pageopacity="0"
     inkscape:pagecheckerboard="0"
     inkscape:deskcolor="#505050"
     inkscape:document-units="mm"
     inkscape:zoom="1.2825338"
     inkscape:cx="263.54082"
     inkscape:cy="158.67029"
     inkscape:window-width="1366"
     inkscape:window-height="705"
     inkscape:window-x="-8"
     inkscape:window-y="-8"
     inkscape:window-maximized="1"
     inkscape:current-layer="layer1" />
  <defs
     id="defs1" />
  <g
     inkscape:label="Calque 1"
     inkscape:groupmode="layer"
     id="layer1">
    <path
       id="path3584"
       style="vector-effect:non-scaling-stroke;fill:none;fill-opacity:0.999403;stroke:#000000;stroke-width:0.264583;stroke-linejoin:round;stroke-dasharray:none;-inkscape-stroke:hairline"
       d="M 109,8 H 61 v 8.000493 h 2.22e-4 L 30.999724,1.000375 v 15.000118 5.17e-4 c 0.004,-8e-6 0.007,-5.17e-4 0.0109,-5.17e-4 2.769966,0 5.000166,2.229698 5.000166,4.999695 v 8.500254 h 9.988963 v 2.99982 H 36.01079 v 8.50026 c 0,2.76999 -2.2302,4.99969 -5.000166,4.99969 -0.004,0 -0.007,-5.1e-4 -0.0109,-5.2e-4 v 5.2e-4 15.00012 L 60.999702,46.000212 H 61 L 61.000285,54 H 109 Z"
       sodipodi:nodetypes="cccccccssccccsscccccccc" />
    <rect
       style="opacity:0.487277;vector-effect:non-scaling-stroke;fill:none;fill-opacity:0.999403;stroke:#ff0000;stroke-width:0.264583;stroke-dasharray:none;stroke-opacity:1;-inkscape-stroke:hairline"
       id="rect3586"
       width="17.999844"
       height="22.999998"
       x="77.000412"
       y="19.499945" />
    <ellipse
       style="vector-effect:non-scaling-stroke;fill:none;fill-opacity:0.999403;stroke:#ff0000;stroke-width:0.264583;stroke-linejoin:round;stroke-dasharray:none;-inkscape-stroke:hairline"
       id="circle3588"
       cx="19.035833"
       cy="-98.535927"
       transform="rotate(90)"
       rx="1.5"
       ry="1.4999869" />
    <ellipse
       style="vector-effect:non-scaling-stroke;fill:none;fill-opacity:0.999403;stroke:#ff0000;stroke-width:0.264583;stroke-linejoin:round;stroke-dasharray:none;-inkscape-stroke:hairline"
       id="circle3590"
       cx="42.848301"
       cy="-98.535927"
       transform="rotate(90)"
       rx="1.5"
       ry="1.4999869" />
    <ellipse
       style="vector-effect:non-scaling-stroke;fill:none;fill-opacity:0.999403;stroke:#ff0000;stroke-width:0.264583;stroke-linejoin:round;stroke-dasharray:none;-inkscape-stroke:hairline"
       id="circle3592"
       cx="19.035833"
       cy="-73.507988"
       transform="rotate(90)"
       rx="1.5"
       ry="1.4999869" />
    <ellipse
       style="vector-effect:non-scaling-stroke;fill:none;fill-opacity:0.999403;stroke:#ff0000;stroke-width:0.264583;stroke-linejoin:round;stroke-dasharray:none;-inkscape-stroke:hairline"
       id="circle3594"
       cx="42.848301"
       cy="-73.507988"
       transform="rotate(90)"
       rx="1.5"
       ry="1.4999869" />
    <path
       id="path3598"
       style="vector-effect:non-scaling-stroke;fill:none;fill-rule:evenodd;stroke:#000000;stroke-width:0.264583;stroke-linecap:butt;stroke-linejoin:miter;stroke-dasharray:none;stroke-opacity:1;-inkscape-stroke:hairline"
       d="M 30.99972,60.99996 1,46.00037 V 32.49991 H 16.00012 V 29.50008 H 1 V 16.00012 L 30.99972,1 v 15.00117 c -2.75503,0.0172 -4.96817,2.23992 -4.96817,4.99916 v 19.99982 c 0,2.75924 2.21314,4.98195 4.96817,4.99917 z" />
  </g>
</svg>
